<?xml version="1.0" encoding="UTF-8"?>
<svg width="154px" height="154px" viewBox="0 0 154 154" version="1.1" xmlns="http://www.w3.org/2000/svg" xmlns:xlink="http://www.w3.org/1999/xlink">
    <!-- Generator: Sketch 42 (36781) - http://www.bohemiancoding.com/sketch -->
    <title>Group 6</title>
    <desc>Created with Sketch.</desc>
    <defs>
        <polygon id="path-1" points="0 153.700191 153.700191 153.700191 153.700191 -2.3281613e-14 0 -2.3281613e-14"></polygon>
    </defs>
    <g id="Symbols" stroke="none" stroke-width="1" fill="none" fill-rule="evenodd">
        <g id="Header-/-Main-test-02" transform="translate(-89.000000, -53.000000)">
            <g id="Group-6" transform="translate(89.000000, 53.000000)">
                <g id="Page-1">
                    <path d="M153.700191,76.8500957 C153.700191,119.293479 119.29266,153.699372 76.8509149,153.699372 C34.4075319,153.699372 0,119.293479 0,76.8500957 C0,34.4067128 34.4075319,0.000819148936 76.8509149,0.000819148936 C119.29266,0.000819148936 153.700191,34.4067128 153.700191,76.8500957 L153.700191,76.8500957 Z" id="Fill-1" fill="#257048"></path>
                    <path d="M76.8500957,6.7776383 C38.1502234,6.7776383 6.77681915,38.1494043 6.77681915,76.8509149 C6.77681915,115.550787 38.1502234,146.922553 76.8500957,146.922553 C115.549968,146.922553 146.923372,115.550787 146.923372,76.8509149 C146.923372,38.1494043 115.549968,6.7776383 76.8500957,6.7776383 M76.8500957,9.4742766 C94.8467979,9.4742766 111.7655,16.4829149 124.491798,29.2092128 C137.216457,41.9338723 144.225096,58.8542128 144.225096,76.8509149 C144.225096,94.8459787 137.216457,111.766319 124.491798,124.490979 C111.7655,137.217277 94.8467979,144.225915 76.8500957,144.225915 C58.8533936,144.225915 41.9346915,137.217277 29.2083936,124.490979 C16.483734,111.766319 9.47509574,94.8459787 9.47509574,76.8509149 C9.47509574,58.8542128 16.483734,41.9338723 29.2083936,29.2092128 C41.9346915,16.4829149 58.8533936,9.4742766 76.8500957,9.4742766" id="Fill-3" fill="#F5E500"></path>
                    <path d="M130.865104,101.053981 C134.181019,93.6652574 136.027381,85.4737681 136.027381,76.8497681 C136.027381,44.1673638 109.532828,17.6728106 76.8504234,17.6728106 C44.1680191,17.6728106 17.673466,44.1673638 17.673466,76.8497681 C17.673466,85.4737681 19.5198277,93.6652574 22.8357426,101.053981 L130.865104,101.053981 Z" id="Fill-5" fill="#D71F16"></path>
                    <path d="M76.8500957,17.6729745 C44.1676915,17.6729745 17.6731383,44.1675277 17.6731383,76.8499319 C17.6731383,85.4739319 19.5195,93.6654213 22.8354149,101.054145 L130.864777,101.054145 C134.180691,93.6654213 136.027053,85.4739319 136.027053,76.8499319 C136.027053,44.1675277 109.5325,17.6729745 76.8500957,17.6729745 M76.8500957,20.3696128 C91.9371809,20.3696128 106.119926,26.2445489 116.786883,36.9131447 C127.455479,47.5801021 133.330415,61.7644851 133.330415,76.8499319 C133.330415,84.3107404 131.905096,91.5372723 129.0905,98.3575064 L24.6096915,98.3575064 C21.7950957,91.5372723 20.3697766,84.3107404 20.3697766,76.8499319 C20.3697766,61.7644851 26.2447128,47.5801021 36.9133085,36.9131447 C47.580266,26.2445489 61.7630106,20.3696128 76.8500957,20.3696128" id="Fill-7" fill="#FEFEFE"></path>
                    <path d="M67.8641957,57.1387511 C62.0547915,57.1387511 58.5340894,61.7866021 56.595983,66.5884532 C55.177217,70.1009638 54.4825787,72.8991766 54.4825787,75.6121979 L54.5907064,76.1970702 L52.6640681,76.1970702 L52.5887064,75.6121979 C52.5887064,71.3067511 54.1647489,67.2749 55.5786,63.6247723 C56.9269191,60.1417511 58.2441106,56.6489 58.2441106,52.5891979 C58.2441106,45.0563043 51.7957702,36.6256234 51.7957702,36.6256234 C51.7957702,36.6256234 45.3474298,45.0563043 45.3474298,52.5891979 C45.3474298,56.6489 46.6646213,60.1417511 48.0129404,63.6247723 C49.4251532,67.2749 51.002834,71.4640277 51.002834,75.6121979 L50.925834,76.1970702 L48.9926426,76.1970702 L49.1007702,75.6121979 C49.1007702,72.8991766 48.4061319,70.1009638 46.9890043,66.5884532 C45.0508979,61.7866021 41.5285574,57.1387511 35.7191532,57.1387511 C29.9965787,57.1387511 26.670834,61.516283 26.670834,65.767666 C26.670834,74.2261979 36.0992383,74.7668362 36.0992383,74.7668362 C36.0992383,74.7668362 37.0248766,70.0174106 41.1501106,70.0174106 C45.2737064,70.0174106 46.0731957,74.557134 46.0731957,75.6121979 C46.0731957,75.6121979 46.0715574,75.8628574 46.0715574,76.1970702 L43.8991745,76.1970702 C43.3814723,76.1970702 42.9620681,76.6164745 42.9620681,77.1341766 C42.9620681,77.6518787 43.3814723,78.071283 43.8991745,78.071283 L46.0584511,78.071283 C45.9552383,79.4294319 45.2606,81.6607936 43.4617489,83.1270702 C40.9535149,85.171666 38.5435787,85.0242191 38.5435787,85.0242191 C38.5435787,85.0242191 39.7936,86.5838787 42.3116638,86.5838787 C44.8280894,86.5838787 47.9932809,84.385283 48.4962383,78.8674957 L48.6436851,78.071283 L50.6817277,78.071283 L50.5932596,78.7528149 C50.5932596,78.7528149 50.5637702,81.7803894 48.895983,84.5605809 C47.4215149,87.0147511 45.8864298,88.004283 45.8864298,88.004283 C45.8864298,88.004283 46.4745787,89.0757298 48.4765787,91.1727511 C50.2443021,93.025666 51.7957702,93.6072617 51.7957702,93.6072617 C51.7957702,93.6072617 53.3456,93.025666 55.1149617,91.1727511 C57.1169617,89.0757298 57.7051106,88.004283 57.7051106,88.004283 C57.7051106,88.004283 56.1683872,87.0147511 54.6955574,84.5605809 C53.0277702,81.7803894 52.9982809,78.7528149 52.9982809,78.7528149 L52.9098128,78.071283 L54.9396638,78.071283 L55.0887489,78.8674957 C55.5900681,84.385283 58.7552596,86.5838787 61.2733234,86.5838787 C63.7897489,86.5838787 65.0397702,85.0242191 65.0397702,85.0242191 C65.0397702,85.0242191 62.6314723,85.171666 60.1216,83.1270702 C58.3243872,81.6607936 57.6297489,79.4294319 57.5265362,78.071283 L59.692366,78.071283 C60.2100681,78.071283 60.6294723,77.6518787 60.6294723,77.1341766 C60.6294723,76.6164745 60.2100681,76.1970702 59.692366,76.1970702 L57.5134298,76.1970702 C57.5117915,75.8628574 57.5101532,75.6121979 57.5101532,75.6121979 C57.5101532,74.557134 58.3096426,70.0174106 62.4348766,70.0174106 C66.5601106,70.0174106 67.4857489,74.7668362 67.4857489,74.7668362 C67.4857489,74.7668362 76.9125149,74.2261979 76.9125149,65.767666 C76.9125149,61.516283 73.5884085,57.1387511 67.8641957,57.1387511" id="Fill-9" fill="#F5E500"></path>
                    <path d="M67.4854213,74.766017 C67.4854213,74.766017 66.559783,70.0182298 62.4345489,70.0182298 C59.3545489,70.0182298 58.1291021,72.5477617 57.7064213,74.2696128 L54.5707191,74.2696128 C54.6641021,73.1178894 54.8705277,71.9825489 55.1490383,70.8619532 C55.4947191,69.5382085 55.9714638,68.1358255 56.5956553,66.5892723 C58.5337617,61.7874213 62.0544638,57.1379319 67.8638681,57.1379319 C73.5880809,57.1379319 76.9138255,61.5154638 76.9138255,65.7668468 C76.9138255,74.227017 67.4854213,74.766017 67.4854213,74.766017 M60.6291447,77.1333574 C60.6291447,77.6510596 60.2097404,78.0704638 59.6920383,78.0704638 L59.4594,78.0704638 L57.5262085,78.0704638 L54.9393362,78.0704638 L52.9094851,78.0704638 L50.6814,78.0704638 L48.6433574,78.0704638 L46.0581234,78.0704638 L44.1249319,78.0704638 L43.8988468,78.0704638 C43.3811447,78.0704638 42.9617404,77.6510596 42.9617404,77.1333574 C42.9617404,76.6156553 43.3811447,76.1962511 43.8988468,76.1962511 L44.1445915,76.1962511 L46.0712298,76.1962511 L48.9841234,76.1962511 L50.9517191,76.1962511 L52.6309745,76.1962511 L54.6067617,76.1962511 L57.5131021,76.1962511 L59.4397404,76.1962511 L59.6920383,76.1962511 C60.2097404,76.1962511 60.6291447,76.6156553 60.6291447,77.1333574 M64.9280383,85.0266766 C65.0017617,85.0266766 65.0394426,85.0234 65.0394426,85.0234 C65.0394426,85.0234 63.7894213,86.5830596 61.2729957,86.5830596 C58.936783,86.5830596 56.0451872,84.6842723 55.2391447,79.9971021 L57.9619957,79.9971021 C58.3568255,81.080017 59.0367191,82.2415702 60.1212723,83.1262511 C62.3133149,84.913634 64.4283574,85.0266766 64.9280383,85.0266766 M55.114634,91.1719319 C53.3469106,93.0248468 51.7954426,93.6064426 51.7954426,93.6064426 C51.7954426,93.6064426 50.2439745,93.0248468 48.4762511,91.1719319 C46.4742511,89.0749106 45.8861021,88.0051021 45.8861021,88.0051021 C45.8861021,88.0051021 47.4211872,87.0155702 48.8956553,84.5597617 C49.8966553,82.8903362 50.3062298,81.1357191 50.4749745,79.9971021 L53.1159106,79.9971021 C53.2846553,81.1357191 53.6925915,82.8903362 54.6952298,84.5597617 C56.1696979,87.0155702 57.704783,88.0051021 57.704783,88.0051021 C57.704783,88.0051021 57.116634,89.0749106 55.114634,91.1719319 M42.3113362,86.5830596 C39.7949106,86.5830596 38.5448894,85.0234 38.5448894,85.0234 C38.5448894,85.0234 38.5825702,85.0266766 38.6546553,85.0266766 C39.1559745,85.0266766 41.271017,84.913634 43.4614213,83.1262511 C44.5476128,82.2415702 45.2275064,81.080017 45.6223362,79.9971021 L48.3451872,79.9971021 C47.5391447,84.6842723 44.6475489,86.5830596 42.3113362,86.5830596 M41.149783,70.0182298 C37.0245489,70.0182298 36.0989106,74.766017 36.0989106,74.766017 C36.0989106,74.766017 26.6705064,74.227017 26.6705064,65.7668468 C26.6705064,61.5154638 29.9962511,57.1379319 35.7204638,57.1379319 C41.5298681,57.1379319 45.0505702,61.7874213 46.9886766,66.5892723 C47.4834426,67.8147191 47.8848255,68.9484213 48.2042936,70.0264213 C48.5942085,71.4206128 48.8923787,72.8492085 49.0136128,74.2696128 L45.8779106,74.2696128 C45.4552298,72.5477617 44.229783,70.0182298 41.149783,70.0182298 M51.7954426,36.6264426 C51.7954426,36.6264426 58.243783,45.0571234 58.243783,52.590017 C58.243783,56.6480809 56.9265915,60.1409319 55.5782723,63.6239532 C54.8164638,65.5899106 54.0104213,67.6672723 53.4255489,69.838017 C53.4124426,69.8904426 53.3993362,69.9395915 53.3845915,69.992017 C53.3583787,70.0919532 53.332166,70.1935277 53.3075915,70.2951021 C52.9340596,71.7007617 52.7046979,73.0081234 52.6080383,74.2696128 L50.9746553,74.2696128 C50.8632511,72.7853149 50.5667191,71.2387617 50.0670383,69.5414851 C49.4919957,67.4805064 48.7318255,65.481783 48.0126128,63.6239532 C46.6642936,60.1409319 45.3471021,56.6480809 45.3471021,52.590017 C45.3471021,45.0571234 51.7954426,36.6264426 51.7954426,36.6264426 M75.9308468,58.5304851 C73.8944426,56.3908681 71.0306979,55.2129319 67.8638681,55.2129319 C64.6085702,55.2112936 61.6891234,56.472783 59.2693574,58.8565064 C59.8018043,56.9167617 60.1704213,54.8361234 60.1704213,52.590017 C60.1704213,44.4968255 53.6057617,35.8204 53.3256128,35.4550596 L51.7954426,33.4546979 L50.2652723,35.4550596 C49.9851234,35.8204 43.4204638,44.4968255 43.4204638,52.590017 C43.4204638,54.8394 43.7907191,56.9233149 44.3248043,58.8646979 C41.9017617,56.4760596 38.9790383,55.2129319 35.7204638,55.2129319 C32.553634,55.2129319 29.6898894,56.3908681 27.6534851,58.5304851 C25.8038468,60.4735064 24.7438681,63.111166 24.7438681,65.7668468 C24.7438681,70.0002085 26.7393149,73.2489532 30.5155915,75.1575702 C33.1991234,76.5157191 35.8761021,76.6828255 35.9891447,76.6893787 L37.6684,76.7860383 L37.9895064,75.134634 C37.9895064,75.134634 38.1877404,74.2089957 38.7562298,73.3423362 C39.5786553,72.0890383 40.5157617,71.9448681 41.149783,71.9448681 C42.7962723,71.9448681 43.5416979,73.2227404 43.8775489,74.2712511 C42.3080596,74.2827191 41.0351021,75.5622298 41.0351021,77.1333574 C41.0351021,78.5898043 42.1262085,79.7923149 43.5351447,79.9725277 C43.2386128,80.5655915 42.8241234,81.1602936 42.244166,81.6337617 C40.4961021,83.0590809 38.8381447,83.0951234 38.6546553,83.1000383 C37.0769745,83.1459106 34.7784426,83.0721872 34.7784426,83.0721872 C34.7784426,83.0721872 35.7663362,84.9644213 37.0409319,86.2291872 C37.2539106,86.4405277 38.9659319,88.5096979 42.3113362,88.5096979 C42.8241234,88.5096979 43.3369106,88.4425277 43.8415064,88.3196553 L44.197017,88.9323787 C44.3166128,89.148634 45.0112511,90.3331234 47.0820596,92.5022298 C49.097166,94.6139957 50.9189532,95.3348468 51.1188255,95.4102085 L51.7954426,95.6641447 L52.4720596,95.4102085 C52.6719319,95.3348468 54.4937191,94.6139957 56.5088255,92.5022298 C58.579634,90.3331234 59.2742723,89.148634 59.3938681,88.9323787 L59.7313574,88.3163787 C60.2392298,88.4408894 60.7569319,88.5096979 61.2729957,88.5096979 C64.6184,88.5096979 66.3304213,86.4405277 66.5434,86.2291872 C67.8179957,84.9644213 68.8058894,83.0721872 68.8058894,83.0721872 C68.8058894,83.0721872 66.5057191,83.1459106 64.9280383,83.1000383 C64.7461872,83.0951234 63.0865915,83.0590809 61.340166,81.6337617 C60.7602085,81.1619319 60.3457191,80.5672298 60.0508255,79.9725277 C61.4614,79.7955915 62.555783,78.5914426 62.555783,77.1333574 C62.555783,75.5589532 61.2795489,74.2794426 59.706783,74.2712511 C60.042634,73.2227404 60.7880596,71.9448681 62.4345489,71.9448681 C63.0685702,71.9448681 64.0056766,72.0890383 64.8264638,73.3423362 C65.3965915,74.2089957 65.5948255,75.134634 65.5948255,75.134634 L65.5948255,75.134634 L65.9159319,76.7860383 L67.5951872,76.6893787 C67.7082298,76.6828255 70.3852085,76.5157191 73.0687404,75.1575702 C76.845017,73.2489532 78.8404638,70.0002085 78.8404638,65.7668468 C78.8404638,63.111166 77.7788468,60.4735064 75.9308468,58.5304851" id="Fill-11" fill="#257048"></path>
                    <path d="M125.195447,57.6500638 C120.475511,55.3498936 115.860426,61.2166383 111.959638,61.677 C109.823298,61.9292979 109.264638,61.0216809 110.627702,59.2375745 C112.880362,56.2902766 119.98566,54.4045957 119.98566,49.2095532 C119.98566,45.43 113.96983,40.6625532 103.620702,40.6625532 L103.615787,40.6625532 L103.415915,40.6625532 L103.411,40.6625532 C93.0618723,40.6625532 87.0476809,45.43 87.0476809,49.2095532 C87.0476809,54.4045957 94.1529787,56.2902766 96.4056383,59.2375745 C97.7670638,61.0216809 97.2084043,61.9292979 95.0720638,61.677 C91.1712766,61.2166383 86.5561915,55.3498936 81.8378936,57.6500638 C78.4400638,59.306383 76.7902979,66.8015957 81.3234681,76.1038511 L81.4135745,76.2889787 C85.948383,85.591234 92.8701915,88.9087872 96.266383,87.2524681 C101.536787,84.683617 98.5714681,75.7122979 102.187191,73.4301489 C102.336277,73.7234043 102.613149,74.4524468 102.668851,75.922 C102.747489,77.956766 103.076787,81.2284468 102.819574,88.2108723 C102.749128,90.1178511 101.364766,92.4475106 99.5364255,94.6887021 C99.2267872,95.0671489 99.3168936,95.6634894 99.8018298,95.6634894 C100.778255,95.6634894 102.472255,95.5766596 103.114468,95.4488723 C103.758319,95.3194468 104.199021,94.9721277 104.543064,94.231617 C105.373681,92.4409574 105.668574,91.6594894 105.668574,86.9477447 C105.668574,83.0141915 105.214766,75.845 105.065681,73.5841489 C108.339,76.0907447 105.606319,84.7376809 110.765319,87.2524681 C114.163149,88.9087872 121.084957,85.591234 125.618128,76.2889787 L125.708234,76.1038511 C130.243043,66.8015957 128.593277,59.306383 125.195447,57.6500638" id="Fill-13" fill="#257048"></path>
                    <path d="M89.2878894,49.165483 C89.2878894,51.9358447 92.7528894,53.862483 95.5085064,54.9994617 C99.9401021,56.8278021 100.570847,58.3907383 100.570847,58.3907383 C100.570847,58.3907383 101.4244,55.7498021 101.709464,52.9450362 C101.996166,50.1369936 101.937187,47.6566106 101.937187,47.6566106 C101.937187,47.6566106 99.928634,45.4809511 96.0065489,45.4809511 C92.6873574,45.4809511 89.2878894,46.7473553 89.2878894,49.165483" id="Fill-15" fill="#F5E500"></path>
                    <path d="M117.739881,49.165483 C117.739881,51.9358447 114.274881,53.862483 111.519264,54.9994617 C107.087668,56.8278021 106.456923,58.3907383 106.456923,58.3907383 C106.456923,58.3907383 105.60337,55.7498021 105.318306,52.9450362 C105.031604,50.1369936 105.090583,47.6566106 105.090583,47.6566106 C105.090583,47.6566106 107.099136,45.4809511 111.021221,45.4809511 C114.340413,45.4809511 117.739881,46.7473553 117.739881,49.165483" id="Fill-17" fill="#F5E500"></path>
                    <path d="M95.2460511,85.2583319 C97.7362638,84.0443532 97.9492426,80.0862255 97.7641149,77.1110766 C97.4659447,72.3256085 98.5947319,71.0739489 98.5947319,71.0739489 C98.5947319,71.0739489 95.8473064,71.4638638 93.2014553,72.4370128 C90.5506894,73.4101617 88.3471787,74.5487787 88.3471787,74.5487787 C88.3471787,74.5487787 87.270817,77.3076723 88.9893915,80.8332894 C90.4442,83.8182681 93.0720298,86.3183106 95.2460511,85.2583319" id="Fill-19" fill="#F5E500"></path>
                    <path d="M82.7795872,59.6828638 C85.2698,58.4688851 88.520183,60.739566 90.7482681,62.7186298 C94.3345021,65.9018426 96.017034,65.7838851 96.017034,65.7838851 C96.017034,65.7838851 94.0166723,67.7072468 91.6198426,69.193183 C89.2213745,70.6807574 86.9654383,71.7145234 86.9654383,71.7145234 C86.9654383,71.7145234 84.1295447,70.8626085 82.4109702,67.3369915 C80.9561617,64.3520128 80.605566,60.7428426 82.7795872,59.6828638" id="Fill-21" fill="#F5E500"></path>
                    <path d="M111.78647,85.2583319 C109.296257,84.0443532 109.083279,80.0862255 109.268406,77.1110766 C109.566577,72.3256085 108.437789,71.0739489 108.437789,71.0739489 C108.437789,71.0739489 111.185215,71.4638638 113.831066,72.4370128 C116.481832,73.4101617 118.685343,74.5487787 118.685343,74.5487787 C118.685343,74.5487787 119.761704,77.3076723 118.04313,80.8332894 C116.588321,83.8182681 113.960491,86.3183106 111.78647,85.2583319" id="Fill-23" fill="#F5E500"></path>
                    <path d="M124.252934,59.6828638 C121.762721,58.4688851 118.512338,60.739566 116.284253,62.7186298 C112.698019,65.9018426 111.015487,65.7838851 111.015487,65.7838851 C111.015487,65.7838851 113.015849,67.7072468 115.412679,69.193183 C117.812785,70.6807574 120.067083,71.7145234 120.067083,71.7145234 C120.067083,71.7145234 122.902977,70.8626085 124.621551,67.3369915 C126.07636,64.3520128 126.426955,60.7428426 124.252934,59.6828638" id="Fill-25" fill="#F5E500"></path>
                    <path d="M34.6844043,107.093074 C36.0671277,105.680862 37.8250213,104.974755 39.9597234,104.974755 C42.8152766,104.974755 44.9041064,105.921691 46.2245745,107.815564 C46.9552553,108.878819 47.3468085,109.945351 47.399234,111.016798 L43.8146383,111.016798 C43.5852766,110.194372 43.2936596,109.573457 42.9365106,109.154053 C42.2975745,108.408628 41.3506383,108.036734 40.0957021,108.036734 C38.8178298,108.036734 37.8102766,108.562628 37.0730426,109.612777 C36.3358085,110.664564 35.9671915,112.153777 35.9671915,114.078777 C35.9671915,116.003777 36.3571064,117.445479 37.1352979,118.403883 C37.9134894,119.362287 38.901383,119.84067 40.100617,119.84067 C41.3309787,119.84067 42.2680851,119.429457 42.9135745,118.607032 C43.2707234,118.164691 43.5672553,117.501181 43.8031702,116.6165 L47.3648298,116.6165 C47.0584681,118.487436 46.2720851,120.007777 45.0089574,121.17916 C43.7458298,122.352181 42.1288298,122.938691 40.1546809,122.938691 C37.713617,122.938691 35.7935319,122.145755 34.3960638,120.56316 C32.9985957,118.972372 32.3006809,116.791798 32.3006809,114.019798 C32.3006809,111.024989 33.0952553,108.714989 34.6844043,107.093074" id="Fill-27" fill="#FEFEFE"></path>
                    <mask id="mask-2" fill="white">
                        <use xlink:href="#path-1"></use>
                    </mask>
                    <g id="Clip-30"></g>
                    <polygon id="Fill-29" fill="#FEFEFE" mask="url(#mask-2)" points="47.5778085 122.937872 51.1050638 122.937872 51.1050638 119.456489 47.5778085 119.456489"></polygon>
                    <polygon id="Fill-31" fill="#FEFEFE" mask="url(#mask-2)" points="52.8257681 105.777357 56.5840234 105.777357 63.396066 117.743485 63.396066 105.777357 66.7381936 105.777357 66.7381936 122.938528 63.1535979 122.938528 56.1662574 110.762698 56.1662574 122.938528 52.8257681 122.938528"></polygon>
                    <polygon id="Fill-32" fill="#FEFEFE" mask="url(#mask-2)" points="68.4579149 122.937872 71.9851702 122.937872 71.9851702 119.456489 68.4579149 119.456489"></polygon>
                    <path d="M84.5396106,111.040881 C84.2676532,109.869498 83.6041426,109.050349 82.5490787,108.585072 C81.9592915,108.32786 81.302334,108.200072 80.581483,108.200072 C79.2003979,108.200072 78.0650574,108.721051 77.1754617,109.763009 C76.2875043,110.804966 75.8435255,112.371179 75.8435255,114.463285 C75.8435255,116.570136 76.3235468,118.060987 77.286866,118.937477 C78.2485468,119.812328 79.3429298,120.249753 80.5700149,120.249753 C81.7725255,120.249753 82.7587809,119.904072 83.5271426,119.214349 C84.2955043,118.524626 84.7689723,117.620285 84.9475468,116.501328 L80.9779511,116.501328 L80.9779511,113.637583 L88.1258447,113.637583 L88.1258447,122.846455 L85.7503128,122.846455 L85.3898872,120.703562 C84.6985255,121.514519 84.0776106,122.086285 83.5271426,122.41886 C82.5802064,122.998817 81.4153766,123.288796 80.0342915,123.288796 C77.760334,123.288796 75.8975894,122.500774 74.4460574,120.92637 C72.9322702,119.343774 72.1753766,117.179583 72.1753766,114.433796 C72.1753766,111.658519 72.9404617,109.432072 74.4689936,107.756094 C75.9975255,106.080115 78.0191851,105.242945 80.5339723,105.242945 C82.7161851,105.242945 84.4675255,105.796689 85.7912702,106.90254 C87.1150149,108.008391 87.8735468,109.387838 88.066866,111.040881 L84.5396106,111.040881 Z" id="Fill-33" fill="#FEFEFE" mask="url(#mask-2)"></path>
                    <polygon id="Fill-34" fill="#FEFEFE" mask="url(#mask-2)" points="89.3757021 122.937872 92.9029574 122.937872 92.9029574 119.456489 89.3757021 119.456489"></polygon>
                    <polygon id="Fill-35" fill="#FEFEFE" mask="url(#mask-2)" points="106.738547 108.816072 97.6574617 108.816072 97.6574617 112.459647 105.993121 112.459647 105.993121 115.441349 97.6574617 115.441349 97.6574617 119.853285 107.157951 119.853285 107.157951 122.9382 94.1531426 122.9382 94.1531426 105.77703 106.738547 105.77703"></polygon>
                    <polygon id="Fill-36" fill="#FEFEFE" mask="url(#mask-2)" points="108.407809 122.937872 111.935064 122.937872 111.935064 119.456489 108.407809 119.456489"></polygon>
                    <polygon id="Fill-37" fill="#FEFEFE" mask="url(#mask-2)" points="113.185085 122.937872 116.748383 122.937872 116.748383 105.776702 113.185085 105.776702"></polygon>
                    <polygon id="Fill-38" fill="#FEFEFE" mask="url(#mask-2)" points="117.998404 122.937872 121.52566 122.937872 121.52566 119.456489 117.998404 119.456489"></polygon>
                </g>
            </g>
        </g>
    </g>
</svg>